# xmcd CD database file
#
# Track frame offsets:
#	150
#	18506
#	37987
#	53562
#	70945
#	85665
#
# Disc length: 1475 seconds
#
# Revision: 2
# Processed by: cddbd v1.5.2PL0 Copyright (c) Steve Scherf et al.
# Submitted via: CDex 1.51
#
DISCID=3f05c106
DTITLE=Birdbones - Birdbones
DYEAR=2010
DGENRE=Country
TTITLE0=Every single one of s
TTITLE1=Streamline
TTITLE2=Poor Boy
TTITLE3=Feel
TTITLE4=Ruins
TTITLE5=Whispering Ghosts
EXTD=YEAR: 2010
EXTT0=
EXTT1=
EXTT2=
EXTT3=
EXTT4=
EXTT5=
PLAYORDER=
